<?xml version="1.0" standalone="no"?>
<!DOCTYPE svg PUBLIC "-//W3C//DTD SVG 20010904//EN"
 "http://www.w3.org/TR/2001/REC-SVG-20010904/DTD/svg10.dtd">
<svg version="1.0" xmlns="http://www.w3.org/2000/svg"
 width="512.000000pt" height="512.000000pt" viewBox="0 0 512.000000 512.000000"
 preserveAspectRatio="xMidYMid meet">

<g transform="translate(0.000000,512.000000) scale(0.100000,-0.100000)"
fill="#000000" stroke="none">
<path d="M2690 4688 c-306 -22 -644 -222 -827 -489 -176 -256 -283 -629 -283
-985 0 -105 -7 -133 -26 -103 -18 29 -180 137 -269 179 -147 70 -208 84 -350
84 -123 0 -161 -7 -277 -50 -123 -46 -251 -149 -329 -265 -118 -174 -202 -447
-216 -701 -7 -124 2 -157 51 -183 41 -22 94 -14 123 18 11 12 33 47 49 77 41
77 135 174 200 206 113 55 259 22 358 -82 143 -149 253 -543 273 -971 l6 -143
1171 0 1172 0 11 133 c39 435 171 740 364 838 202 101 501 74 828 -76 93 -43
104 -46 136 -35 47 15 75 53 75 101 0 98 -123 392 -235 560 -125 188 -273 322
-450 409 -169 83 -318 108 -524 90 -286 -26 -519 -128 -698 -307 l-62 -62 -63
68 c-123 133 -177 257 -178 402 0 107 24 191 80 277 134 209 398 333 622 293
150 -27 164 -26 198 7 22 23 30 40 30 67 0 104 -203 372 -367 483 -190 129
-367 177 -593 160z"/>
<path d="M3740 4028 c-25 -14 -58 -44 -75 -67 -27 -39 -30 -50 -30 -120 0 -68
3 -82 27 -117 15 -21 44 -50 65 -64 31 -21 48 -25 113 -25 65 0 82 4 113 25
21 14 50 43 65 64 24 35 27 49 27 116 0 67 -3 81 -27 116 -44 62 -90 88 -167
92 -55 3 -74 -1 -111 -20z"/>
<path d="M125 2113 c-165 -87 -166 -300 -1 -385 59 -30 151 -22 208 18 138 96
118 305 -34 369 -48 19 -134 19 -173 -2z"/>
<path d="M4820 2114 c-167 -72 -165 -318 2 -389 137 -57 297 46 298 193 1 150
-161 256 -300 196z"/>
<path d="M1177 1063 c-4 -3 -7 -103 -7 -221 0 -174 3 -220 16 -247 32 -69 -35
-65 1158 -65 1179 0 1129 -3 1160 59 13 25 16 70 16 256 l0 225 -1168 0 c-643
0 -1172 -3 -1175 -7z"/>
</g>
</svg>
